Coordinates
version=1
nRows=7
nColumns=42
inDegrees=yes

Units are S.I. units (second, meters, Newtons, ...)
If the header above contains a line with 'inDegrees', this indicates whether rotational values are in degrees (yes) or radians (no).

endheader
time	pelvis_tilt	pelvis_list	pelvis_rotation	pelvis_tx	pelvis_ty	pelvis_tz	hip_flexion_r	hip_adduction_r	hip_rotation_r	knee_angle_r	knee_adduction_r	knee_angle_r_beta	ankle_angle_r	subtalar_angle_r	mtp_angle_r	hip_flexion_l	hip_adduction_l	hip_rotation_l	knee_angle_l	knee_adduction_l	knee_angle_l_beta	ankle_angle_l	subtalar_angle_l	mtp_angle_l	lumbar_extension	lumbar_bending	lumbar_rotation	arm_flex_r	arm_add_r	arm_rot_r	elbow_flex_r	pro_sup_r	wrist_flex_r	wrist_dev_r	arm_flex_l	arm_add_l	arm_rot_l	elbow_flex_l	pro_sup_l	wrist_flex_l	wrist_dev_l
      0.55000000	      8.26791343	      0.36153707	      0.22923970	     -0.60840742	      1.00636546	     -0.26740885	     17.56101572	     -5.70793665	    -10.25884438	     17.86384414	      8.53537906	      0.31178290	      1.42461324	     -5.72105608	     -7.76188006	    -21.14907327	     -3.60373635	      0.99992532	      6.03402324	     12.59395368	      0.10531357	     14.16594785	      2.77083503	     -7.76188006	    -20.72477317	     -0.89757687	     -4.08256369	     -5.11792313	     -6.09956638	    -17.08505027	      9.45827570	     90.00000001	      0.00000000	      0.00000000	     20.79934090	    -18.80729537	     -3.17414901	     38.49887012	     90.00000001	      0.00000000	      0.00000000
      0.56000000	      8.05835349	      0.45475250	      0.42411497	     -0.59450884	      1.00349105	     -0.26683687	     17.51587708	     -5.78772588	    -10.97705625	     14.56348333	      8.94169833	      0.25418073	      1.57831378	     -4.00432521	     -7.74706487	    -21.67662971	     -3.62688023	      0.90073272	      6.30545687	     12.57900141	      0.11005098	     14.68353935	      3.23151006	     -7.74706487	    -20.48740713	     -0.87997646	     -4.26188646	     -5.46807323	     -6.01309732	    -18.81212438	      9.69521552	     90.00000001	      0.00000000	      0.00000000	     21.30982904	    -19.22145882	     -2.66482891	     39.57056046	     90.00000001	      0.00000000	      0.00000000
      0.57000000	      7.51401031	      0.84904856	      0.47899131	     -0.58067074	      1.00015775	     -0.26641188	     18.02334254	     -6.28067283	    -11.42343254	     11.93848807	      9.56953605	      0.20836592	      1.53510882	     -2.57386959	     -7.74309761	    -21.77293280	     -3.22739881	      0.96647643	      6.71237673	     12.49224252	      0.11715307	     15.03469004	      3.40030150	     -7.74309761	    -19.87915006	     -1.19803408	     -4.47655400	     -6.05754436	     -5.97168177	    -19.44729732	     10.51381301	     90.00000001	      0.00000000	      0.00000000	     21.69286038	    -19.57273326	     -2.51174414	     40.43152316	     90.00000001	      0.00000000	      0.00000000
      0.58000000	      7.69280112	      0.79005064	      0.77343881	     -0.56624520	      0.99782164	     -0.26564194	     17.50520937	     -6.22367659	    -12.15176059	      9.37418791	     10.01207097	      0.16361044	      1.81061980	     -0.89242989	     -7.73356950	    -22.75441706	     -3.54138688	      1.04158488	      6.94448713	     12.60237622	      0.12120417	     15.35187747	      3.87324153	     -7.73356950	    -20.05061999	     -1.01493529	     -4.69258741	     -6.29020796	     -5.88228124	    -21.27348995	     10.83662162	     90.00000001	      0.00000000	      0.00000000	     21.97698996	    -20.03786214	     -1.87364807	     41.69122908	     90.00000001	      0.00000000	      0.00000000
      0.59000000	      7.30427835	      1.02100744	      0.93822042	     -0.55212663	      0.99478302	     -0.26515280	     17.92285406	     -6.53026812	    -12.38422809	      7.77402426	     10.49497151	      0.13568232	      1.82698441	      0.21446755	     -7.72987229	    -22.96842383	     -3.40681143	      1.28656169	      7.44726301	     12.55716906	      0.12997926	     15.59438115	      3.96848705	     -7.72987229	    -19.61489576	     -1.12512143	     -4.92427855	     -6.79379417	     -5.82252481	    -22.03167636	     11.53246749	     90.00000001	      0.00000000	      0.00000000	     22.24021720	    -20.30623601	     -1.87068165	     42.54083615	     90.00000001	      0.00000000	      0.00000000
      0.60000000	      7.30848701	      0.94475309	      1.22189540	     -0.53758382	      0.99236658	     -0.26450748	     17.85254110	     -6.48567419	    -12.81147741	      6.61210848	     10.82482373	      0.11540306	      2.04055275	      1.37708230	     -7.72157641	    -23.63322098	     -3.70655259	      1.50817408	      7.91887140	     12.57455791	      0.13821038	     15.75610315	      4.24339665	     -7.72157641	    -19.58266897	     -0.87822620	     -5.17616294	     -7.01906318	     -5.75763608	    -23.37457541	     11.65365901	     90.00000001	      0.00000000	      0.00000000	     22.34003283	    -20.64787303	     -1.59882883	     43.58196904	     90.00000001	      0.00000000	      0.00000000
      0.61000000	      7.16211063	      0.91887793	      1.49449455	     -0.52306047	      0.98987232	     -0.26399496	     18.05062314	     -6.47521084	    -12.88537943	      6.06906156	     11.01309111	      0.10592511	      2.18387578	      2.14341871	     -7.71411316	    -24.04523370	     -3.92850674	      1.81260837	      8.54636214	     12.55306486	      0.14916216	     15.85786866	      4.37611076	     -7.71411316	    -19.39351719	     -0.66496364	     -5.44432123	     -7.33280226	     -5.71082219	    -24.16771551	     11.75775266	     90.00000001	      0.00000000	      0.00000000	     22.34805926	    -20.86319812	     -1.62043028	     44.47136206	     90.00000001	      0.00000000	      0.00000000
